<?xml version="1.0" encoding="UTF-8" standalone="no"?>
<!-- Created with Inkscape (http://www.inkscape.org/) -->

<svg
   xmlns:dc="http://purl.org/dc/elements/1.1/"
   xmlns:cc="http://creativecommons.org/ns#"
   xmlns:rdf="http://www.w3.org/1999/02/22-rdf-syntax-ns#"
   xmlns:svg="http://www.w3.org/2000/svg"
   xmlns="http://www.w3.org/2000/svg"
   xmlns:sodipodi="http://sodipodi.sourceforge.net/DTD/sodipodi-0.dtd"
   xmlns:inkscape="http://www.inkscape.org/namespaces/inkscape"
   version="1.1"
   id="svg5276"
   xml:space="preserve"
   width="595.80396"
   height="61.027199"
   viewBox="0 0 595.80396 61.0272"
   sodipodi:docname="logoLG.svg"
   inkscape:version="0.92.4 (f8dce91, 2019-08-02)"><metadata
     id="metadata5282"><rdf:RDF><cc:Work
         rdf:about=""><dc:format>image/svg+xml</dc:format><dc:type
           rdf:resource="http://purl.org/dc/dcmitype/StillImage" /><dc:title></dc:title></cc:Work></rdf:RDF></metadata><defs
     id="defs5280"><clipPath
       clipPathUnits="userSpaceOnUse"
       id="clipPath5292"><path
         d="M 0,152.421 H 422.076 V 0 H 0 Z"
         id="path5290"
         inkscape:connector-curvature="0" /></clipPath></defs><sodipodi:namedview
     pagecolor="#ffffff"
     bordercolor="#666666"
     borderopacity="1"
     objecttolerance="10"
     gridtolerance="10"
     guidetolerance="10"
     inkscape:pageopacity="0"
     inkscape:pageshadow="2"
     inkscape:window-width="1920"
     inkscape:window-height="1016"
     id="namedview5278"
     showgrid="false"
     inkscape:zoom="6.5248912"
     inkscape:cx="96.781736"
     inkscape:cy="5.5247627"
     inkscape:window-x="0"
     inkscape:window-y="27"
     inkscape:window-maximized="1"
     inkscape:current-layer="g5284"
     fit-margin-top="0"
     fit-margin-left="0"
     fit-margin-right="0"
     fit-margin-bottom="0"
     inkscape:snap-page="true"
     inkscape:snap-bbox="true"
     inkscape:snap-nodes="false"
     inkscape:snap-others="false"
     inkscape:bbox-nodes="true" /><g
     id="g5284"
     inkscape:groupmode="layer"
     inkscape:label="SPARKWEST_HORIZ_WHITE"
     transform="matrix(1.3333333,0,0,-1.3333333,45.036391,128.026)"><g
       id="g2315"><path
         d="m 21.3667,83.7163 v 4.016 c 0,1.826 -0.892,2.741 -2.677,2.741 h -0.956 c -1.743,0 -2.614,-0.915 -2.614,-2.741 v -7.586 c 0,-0.85 0.169,-1.424 0.51,-1.721 0.34,-0.298 0.892,-0.68 1.657,-1.147 l 5.801,-3.124 c 1.275,-0.723 2.177,-1.286 2.71,-1.689 0.53,-0.405 0.944,-0.893 1.242,-1.466 0.297,-0.574 0.447,-1.669 0.447,-3.283 v -9.754 c 0,-5.142 -2.465,-7.713 -7.395,-7.713 h -3.761 c -4.887,0 -7.331,2.805 -7.331,8.414 v 2.296 h 6.12 v -2.486 c 0,-1.785 0.914,-2.678 2.741,-2.678 h 1.084 c 1.614,0 2.422,0.893 2.422,2.678 v 7.776 c 0,0.85 -0.17,1.424 -0.51,1.721 -0.341,0.297 -0.892,0.68 -1.657,1.148 l -5.801,3.251 c -1.275,0.68 -2.199,1.253 -2.773,1.721 -0.574,0.467 -0.988,1.073 -1.243,1.817 -0.255,0.743 -0.383,1.71 -0.383,2.9 v 9.371 c 0,5.227 2.444,7.841 7.331,7.841 h 3.825 c 4.886,0 7.331,-2.614 7.331,-7.841 v -4.462 z"
         style="fill:#ffffff;fill-opacity:1;fill-rule:nonzero;stroke:none"
         id="path5300"
         inkscape:connector-curvature="0" /><path
         d="m 38.7051,72.3692 h 3.888 c 1.615,0 2.423,0.893 2.423,2.678 v 12.749 c 0,1.784 -0.915,2.677 -2.741,2.677 h -3.57 z m -6.12,23.65 h 11.156 c 4.929,0 7.394,-2.614 7.394,-7.841 v -13.578 c 0,-5.185 -2.444,-7.777 -7.33,-7.777 h -5.1 v -16.574 h -6.12 z"
         style="fill:#ffffff;fill-opacity:1;fill-rule:nonzero;stroke:none"
         id="path5304"
         inkscape:connector-curvature="0" /><path
         d="m 68.7925,72.5606 v 15.235 c 0,1.785 -0.893,2.678 -2.677,2.678 h -1.658 c -1.785,0 -2.677,-0.893 -2.677,-2.678 v -15.235 z m -7.012,-22.311 h -6.12 v 37.929 c 0,5.227 2.444,7.84 7.331,7.84 h 4.59 c 4.886,0 7.331,-2.613 7.331,-7.84 v -37.929 h -6.12 v 16.765 h -7.012 z"
         style="fill:#ffffff;fill-opacity:1;fill-rule:nonzero;stroke:none"
         id="path5308"
         inkscape:connector-curvature="0" /><path
         d="m 86.4492,73.9629 h 4.016 c 1.827,0 2.741,1.104 2.741,3.315 v 9.88 c 0,2.21 -0.914,3.315 -2.741,3.315 h -4.016 z m -6.12,22.056 h 11.984 c 4.675,0 7.012,-2.614 7.012,-7.841 v -11.282 c 0,-3.995 -1.21,-6.525 -3.633,-7.586 l 4.271,-19.06 h -5.801 l -4.016,18.486 h -3.697 v -18.486 h -6.12 z"
         style="fill:#ffffff;fill-opacity:1;fill-rule:nonzero;stroke:none"
         id="path5312"
         inkscape:connector-curvature="0" /><path
         d="m 124.6323,50.2495 h -6.12 l -7.649,22.375 v 0.382 l 6.374,23.013 h 5.61 l -6.439,-22.758 z m -14.088,0 h -6.12 v 45.77 h 6.12 z"
         style="fill:#ffffff;fill-opacity:1;fill-rule:nonzero;stroke:none"
         id="path5316"
         inkscape:connector-curvature="0" /><path
         d="m 170.3369,96.0191 -6.757,-45.77 h -6.63 l -3.761,26.519 -3.697,-26.519 h -6.63 l -6.756,45.77 h 6.055 l 4.335,-34.295 4.335,34.295 h 4.78 l 4.335,-34.295 4.335,34.295 z"
         style="fill:#ffffff;fill-opacity:1;fill-rule:nonzero;stroke:none"
         id="path5320"
         inkscape:connector-curvature="0" /><path
         d="m 173.2051,50.2495 v 45.77 h 15.171 v -5.546 h -9.051 v -13.897 h 8.031 v -5.546 h -8.031 v -15.235 h 9.051 v -5.546 z"
         style="fill:#ffffff;fill-opacity:1;fill-rule:nonzero;stroke:none"
         id="path5324"
         inkscape:connector-curvature="0" /><path
         d="m 204.5039,83.7163 v 4.016 c 0,1.826 -0.892,2.741 -2.677,2.741 h -0.956 c -1.743,0 -2.614,-0.915 -2.614,-2.741 v -7.586 c 0,-0.85 0.169,-1.424 0.51,-1.721 0.34,-0.298 0.892,-0.68 1.657,-1.147 l 5.801,-3.124 c 1.275,-0.723 2.177,-1.286 2.71,-1.689 0.53,-0.405 0.944,-0.893 1.242,-1.466 0.297,-0.574 0.447,-1.669 0.447,-3.283 v -9.754 c 0,-5.142 -2.465,-7.713 -7.395,-7.713 h -3.761 c -4.887,0 -7.331,2.805 -7.331,8.414 v 2.296 h 6.12 v -2.486 c 0,-1.785 0.914,-2.678 2.741,-2.678 h 1.084 c 1.614,0 2.422,0.893 2.422,2.678 v 7.776 c 0,0.85 -0.17,1.424 -0.51,1.721 -0.341,0.297 -0.892,0.68 -1.657,1.148 l -5.801,3.251 c -1.275,0.68 -2.199,1.253 -2.773,1.721 -0.574,0.467 -0.988,1.073 -1.243,1.817 -0.255,0.743 -0.383,1.71 -0.383,2.9 v 9.371 c 0,5.227 2.444,7.841 7.331,7.841 h 3.825 c 4.886,0 7.331,-2.614 7.331,-7.841 v -4.462 z"
         style="fill:#ffffff;fill-opacity:1;fill-rule:nonzero;stroke:none"
         id="path5328"
         inkscape:connector-curvature="0" /><path
         d="m 225.4751,90.4732 v -40.224 h -6.12 v 40.224 h -5.864 v 5.546 h 17.849 v -5.546 z"
         style="fill:#ffffff;fill-opacity:1;fill-rule:nonzero;stroke:none"
         id="path5332"
         inkscape:connector-curvature="0" /><path
         d="m 257.7295,73.8994 v 22.12 h 6.12 v -45.77 h -6.12 v 9.115 l -6.566,20.846 v -29.961 h -6.12 v 45.77 h 6.12 z"
         style="fill:#ffffff;fill-opacity:1;fill-rule:nonzero;stroke:none"
         id="path5336"
         inkscape:connector-curvature="0" /><path
         d="m 269.5854,50.2495 v 45.77 h 15.171 v -5.546 h -9.051 v -13.897 h 8.031 v -5.546 h -8.031 v -15.235 h 9.051 v -5.546 z"
         style="fill:#ffffff;fill-opacity:1;fill-rule:nonzero;stroke:none"
         id="path5340"
         inkscape:connector-curvature="0" /><path
         d="m 298.9082,90.4732 v -40.224 h -6.12 v 40.224 h -5.864 v 5.546 h 17.849 v -5.546 z"
         style="fill:#ffffff;fill-opacity:1;fill-rule:nonzero;stroke:none"
         id="path5344"
         inkscape:connector-curvature="0" /><path
         d="m 340.2783,96.0191 -6.757,-45.77 h -6.63 l -3.761,26.519 -3.697,-26.519 h -6.63 l -6.756,45.77 h 6.055 l 4.335,-34.295 4.335,34.295 h 4.78 l 4.335,-34.295 4.335,34.295 z"
         style="fill:#ffffff;fill-opacity:1;fill-rule:nonzero;stroke:none"
         id="path5348"
         inkscape:connector-curvature="0" /><path
         d="m 351.689,55.7954 h 3.124 c 1.614,0 2.422,0.893 2.422,2.678 v 29.322 c 0,1.785 -0.915,2.678 -2.741,2.678 h -2.869 c -1.785,0 -2.677,-0.893 -2.677,-2.678 v -29.322 c 0,-1.785 0.913,-2.678 2.741,-2.678 m -1.466,-5.546 c -4.93,0 -7.395,2.592 -7.395,7.777 v 30.152 c 0,5.227 2.444,7.841 7.331,7.841 h 5.864 c 4.887,0 7.332,-2.614 7.332,-7.841 v -30.152 c 0,-5.185 -2.466,-7.777 -7.395,-7.777 z"
         style="fill:#ffffff;fill-opacity:1;fill-rule:nonzero;stroke:none"
         id="path5352"
         inkscape:connector-curvature="0" /><path
         d="m 374.8916,73.9629 h 4.016 c 1.827,0 2.741,1.104 2.741,3.315 v 9.88 c 0,2.21 -0.914,3.315 -2.741,3.315 h -4.016 z m -6.12,22.056 h 11.984 c 4.675,0 7.012,-2.614 7.012,-7.841 v -11.282 c 0,-3.995 -1.21,-6.525 -3.633,-7.586 l 4.271,-19.06 h -5.801 l -4.016,18.486 h -3.697 v -18.486 h -6.12 z"
         style="fill:#ffffff;fill-opacity:1;fill-rule:nonzero;stroke:none"
         id="path5356"
         inkscape:connector-curvature="0" /><path
         d="m 413.0757,50.2495 h -6.12 l -7.65,22.375 v 0.382 l 6.375,23.013 h 5.61 l -6.439,-22.758 z m -14.088,0 h -6.12 v 45.77 h 6.12 z"
         style="fill:#ffffff;fill-opacity:1;fill-rule:nonzero;stroke:none"
         id="path5360"
         inkscape:connector-curvature="0" /><path
         style="fill:#fcd23c;fill-opacity:1;stroke-width:0.10481284"
         inkscape:connector-curvature="0"
         d="M -33.040824,74.913398 -12.67045,95.28273 c 0.982094,0.982093 2.575251,0.982093 3.5573502,0 l 2.376108,-2.376108 c 0.981047,-0.981048 0.982094,-2.570014 0.0041,-3.553159 L -22.877124,73.134724 -6.7338468,56.914936 c 0.978949,-0.983144 0.976851,-2.572107 -0.0041,-3.553155 l -2.376113,-2.376107 c -0.9820992,-0.982096 -2.5752562,-0.982096 -3.5573552,0 L -33.040722,71.35605 c -0.982096,0.982096 -0.982096,2.575251 0,3.557348 z"
         id="path1460" /></g></g></svg>