<?xml version="1.0" encoding="UTF-8" standalone="no"?>
<!-- Created with Inkscape (http://www.inkscape.org/) -->

<svg
   xmlns:dc="http://purl.org/dc/elements/1.1/"
   xmlns:cc="http://creativecommons.org/ns#"
   xmlns:rdf="http://www.w3.org/1999/02/22-rdf-syntax-ns#"
   xmlns:svg="http://www.w3.org/2000/svg"
   xmlns="http://www.w3.org/2000/svg"
   xmlns:sodipodi="http://sodipodi.sourceforge.net/DTD/sodipodi-0.dtd"
   xmlns:inkscape="http://www.inkscape.org/namespaces/inkscape"
   version="1.1"
   id="svg5276"
   xml:space="preserve"
   width="538.76801"
   height="61.027199"
   viewBox="0 0 538.76801 61.0272"
   sodipodi:docname="logoLG.svg"
   inkscape:version="0.92.4 (5da689c313, 2019-01-14)"><metadata
     id="metadata5282"><rdf:RDF><cc:Work
         rdf:about=""><dc:format>image/svg+xml</dc:format><dc:type
           rdf:resource="http://purl.org/dc/dcmitype/StillImage" /><dc:title></dc:title></cc:Work></rdf:RDF></metadata><defs
     id="defs5280"><clipPath
       clipPathUnits="userSpaceOnUse"
       id="clipPath5292"><path
         d="M 0,152.421 H 422.076 V 0 H 0 Z"
         id="path5290"
         inkscape:connector-curvature="0" /></clipPath></defs><sodipodi:namedview
     pagecolor="#ffffff"
     bordercolor="#666666"
     borderopacity="1"
     objecttolerance="10"
     gridtolerance="10"
     guidetolerance="10"
     inkscape:pageopacity="0"
     inkscape:pageshadow="2"
     inkscape:window-width="1920"
     inkscape:window-height="1025"
     id="namedview5278"
     showgrid="false"
     inkscape:zoom="2.3068974"
     inkscape:cx="274.17617"
     inkscape:cy="-20.263466"
     inkscape:window-x="1680"
     inkscape:window-y="25"
     inkscape:window-maximized="1"
     inkscape:current-layer="g5288"
     fit-margin-top="0"
     fit-margin-left="0"
     fit-margin-right="0"
     fit-margin-bottom="0" /><g
     id="g5284"
     inkscape:groupmode="layer"
     inkscape:label="SPARKWEST_HORIZ_WHITE"
     transform="matrix(1.3333333,0,0,-1.3333333,-11.9996,128.026)"><g
       id="g5286"
       style="fill:#ff0000"><g
         id="g5288"
         clip-path="url(#clipPath5292)"
         style="fill:#ff0000"><g
           id="g5298"
           transform="translate(21.3667,83.7163)"
           style="fill:#ffffff"><path
             d="m 0,0 v 4.016 c 0,1.826 -0.892,2.741 -2.677,2.741 h -0.956 c -1.743,0 -2.614,-0.915 -2.614,-2.741 V -3.57 c 0,-0.85 0.169,-1.424 0.51,-1.721 0.34,-0.298 0.892,-0.68 1.657,-1.147 l 5.801,-3.124 c 1.275,-0.723 2.177,-1.286 2.71,-1.689 0.53,-0.405 0.944,-0.893 1.242,-1.466 C 5.97,-13.291 6.12,-14.386 6.12,-16 v -9.754 c 0,-5.142 -2.465,-7.713 -7.395,-7.713 h -3.761 c -4.887,0 -7.331,2.805 -7.331,8.414 v 2.296 h 6.12 v -2.486 c 0,-1.785 0.914,-2.678 2.741,-2.678 h 1.084 c 1.614,0 2.422,0.893 2.422,2.678 v 7.776 c 0,0.85 -0.17,1.424 -0.51,1.721 -0.341,0.297 -0.892,0.68 -1.657,1.148 l -5.801,3.251 c -1.275,0.68 -2.199,1.253 -2.773,1.721 -0.574,0.467 -0.988,1.073 -1.243,1.817 -0.255,0.743 -0.383,1.71 -0.383,2.9 v 9.371 c 0,5.227 2.444,7.841 7.331,7.841 h 3.825 c 4.886,0 7.331,-2.614 7.331,-7.841 V 0 Z"
             style="fill:#ffffff;fill-opacity:1;fill-rule:nonzero;stroke:none"
             id="path5300"
             inkscape:connector-curvature="0" /></g><g
           id="g5302"
           transform="translate(38.7051,72.3692)"
           style="fill:#ffffff"><path
             d="m 0,0 h 3.888 c 1.615,0 2.423,0.893 2.423,2.678 v 12.749 c 0,1.784 -0.915,2.677 -2.741,2.677 H 0 Z M -6.12,23.65 H 5.036 c 4.929,0 7.394,-2.614 7.394,-7.841 V 2.231 c 0,-5.185 -2.444,-7.777 -7.33,-7.777 H 0 V -22.12 h -6.12 z"
             style="fill:#ffffff;fill-opacity:1;fill-rule:nonzero;stroke:none"
             id="path5304"
             inkscape:connector-curvature="0" /></g><g
           id="g5306"
           transform="translate(68.7925,72.5606)"
           style="fill:#ffffff"><path
             d="m 0,0 v 15.235 c 0,1.785 -0.893,2.678 -2.677,2.678 h -1.658 c -1.785,0 -2.677,-0.893 -2.677,-2.678 L -7.012,0 Z m -7.012,-22.311 h -6.12 v 37.929 c 0,5.227 2.444,7.84 7.331,7.84 h 4.59 c 4.886,0 7.331,-2.613 7.331,-7.84 V -22.311 H 0 v 16.765 h -7.012 z"
             style="fill:#ffffff;fill-opacity:1;fill-rule:nonzero;stroke:none"
             id="path5308"
             inkscape:connector-curvature="0" /></g><g
           id="g5310"
           transform="translate(86.4492,73.9629)"
           style="fill:#ffffff"><path
             d="m 0,0 h 4.016 c 1.827,0 2.741,1.104 2.741,3.315 v 9.88 c 0,2.21 -0.914,3.315 -2.741,3.315 H 0 Z M -6.12,22.056 H 5.864 c 4.675,0 7.012,-2.614 7.012,-7.841 V 2.933 c 0,-3.995 -1.21,-6.525 -3.633,-7.586 l 4.271,-19.06 H 7.713 L 3.697,-5.227 H 0 v -18.486 h -6.12 z"
             style="fill:#ffffff;fill-opacity:1;fill-rule:nonzero;stroke:none"
             id="path5312"
             inkscape:connector-curvature="0" /></g><g
           id="g5314"
           transform="translate(124.6323,50.2495)"
           style="fill:#ffffff"><path
             d="m 0,0 h -6.12 l -7.649,22.375 v 0.382 l 6.374,23.013 h 5.61 L -8.224,23.012 Z m -14.088,0 h -6.12 v 45.77 h 6.12 z"
             style="fill:#ffffff;fill-opacity:1;fill-rule:nonzero;stroke:none"
             id="path5316"
             inkscape:connector-curvature="0" /></g><g
           id="g5318"
           transform="translate(170.3369,96.0191)"
           style="fill:#ffffff"><path
             d="m 0,0 -6.757,-45.77 h -6.63 l -3.761,26.519 -3.697,-26.519 h -6.63 L -34.231,0 h 6.055 L -23.841,-34.295 -19.506,0 h 4.78 L -10.391,-34.295 -6.056,0 Z"
             style="fill:#ffffff;fill-opacity:1;fill-rule:nonzero;stroke:none"
             id="path5320"
             inkscape:connector-curvature="0" /></g><g
           id="g5322"
           transform="translate(173.2051,50.2495)"
           style="fill:#ffffff"><path
             d="M 0,0 V 45.77 H 15.171 V 40.224 H 6.12 V 26.327 h 8.031 V 20.781 H 6.12 V 5.546 h 9.051 V 0 Z"
             style="fill:#ffffff;fill-opacity:1;fill-rule:nonzero;stroke:none"
             id="path5324"
             inkscape:connector-curvature="0" /></g><g
           id="g5326"
           transform="translate(204.5039,83.7163)"
           style="fill:#ffffff"><path
             d="m 0,0 v 4.016 c 0,1.826 -0.892,2.741 -2.677,2.741 h -0.956 c -1.743,0 -2.614,-0.915 -2.614,-2.741 V -3.57 c 0,-0.85 0.169,-1.424 0.51,-1.721 0.34,-0.298 0.892,-0.68 1.657,-1.147 l 5.801,-3.124 c 1.275,-0.723 2.177,-1.286 2.71,-1.689 0.53,-0.405 0.944,-0.893 1.242,-1.466 C 5.97,-13.291 6.12,-14.386 6.12,-16 v -9.754 c 0,-5.142 -2.465,-7.713 -7.395,-7.713 h -3.761 c -4.887,0 -7.331,2.805 -7.331,8.414 v 2.296 h 6.12 v -2.486 c 0,-1.785 0.914,-2.678 2.741,-2.678 h 1.084 c 1.614,0 2.422,0.893 2.422,2.678 v 7.776 c 0,0.85 -0.17,1.424 -0.51,1.721 -0.341,0.297 -0.892,0.68 -1.657,1.148 l -5.801,3.251 c -1.275,0.68 -2.199,1.253 -2.773,1.721 -0.574,0.467 -0.988,1.073 -1.243,1.817 -0.255,0.743 -0.383,1.71 -0.383,2.9 v 9.371 c 0,5.227 2.444,7.841 7.331,7.841 h 3.825 c 4.886,0 7.331,-2.614 7.331,-7.841 V 0 Z"
             style="fill:#ffffff;fill-opacity:1;fill-rule:nonzero;stroke:none"
             id="path5328"
             inkscape:connector-curvature="0" /></g><g
           id="g5330"
           transform="translate(225.4751,90.4732)"
           style="fill:#ffffff"><path
             d="M 0,0 V -40.224 H -6.12 V 0 h -5.864 V 5.546 H 5.865 V 0 Z"
             style="fill:#ffffff;fill-opacity:1;fill-rule:nonzero;stroke:none"
             id="path5332"
             inkscape:connector-curvature="0" /></g><g
           id="g5334"
           transform="translate(257.7295,73.8994)"
           style="fill:#ffffff"><path
             d="M 0,0 V 22.12 H 6.12 V -23.65 H 0 v 9.115 L -6.566,6.311 V -23.65 h -6.12 v 45.77 h 6.12 z"
             style="fill:#ffffff;fill-opacity:1;fill-rule:nonzero;stroke:none"
             id="path5336"
             inkscape:connector-curvature="0" /></g><g
           id="g5338"
           transform="translate(269.5854,50.2495)"
           style="fill:#ffffff"><path
             d="M 0,0 V 45.77 H 15.171 V 40.224 H 6.12 V 26.327 h 8.031 V 20.781 H 6.12 V 5.546 h 9.051 V 0 Z"
             style="fill:#ffffff;fill-opacity:1;fill-rule:nonzero;stroke:none"
             id="path5340"
             inkscape:connector-curvature="0" /></g><g
           id="g5342"
           transform="translate(298.9082,90.4732)"
           style="fill:#ffffff"><path
             d="M 0,0 V -40.224 H -6.12 V 0 h -5.864 V 5.546 H 5.865 V 0 Z"
             style="fill:#ffffff;fill-opacity:1;fill-rule:nonzero;stroke:none"
             id="path5344"
             inkscape:connector-curvature="0" /></g><g
           id="g5346"
           transform="translate(340.2783,96.0191)"
           style="fill:#ffffff"><path
             d="m 0,0 -6.757,-45.77 h -6.63 l -3.761,26.519 -3.697,-26.519 h -6.63 L -34.231,0 h 6.055 L -23.841,-34.295 -19.506,0 h 4.78 L -10.391,-34.295 -6.056,0 Z"
             style="fill:#ffffff;fill-opacity:1;fill-rule:nonzero;stroke:none"
             id="path5348"
             inkscape:connector-curvature="0" /></g><g
           id="g5350"
           transform="translate(351.689,55.7954)"
           style="fill:#ffffff"><path
             d="M 0,0 H 3.124 C 4.738,0 5.546,0.893 5.546,2.678 V 32 c 0,1.785 -0.915,2.678 -2.741,2.678 h -2.869 c -1.785,0 -2.677,-0.893 -2.677,-2.678 V 2.678 C -2.741,0.893 -1.828,0 0,0 m -1.466,-5.546 c -4.93,0 -7.395,2.592 -7.395,7.777 v 30.152 c 0,5.227 2.444,7.841 7.331,7.841 h 5.864 c 4.887,0 7.332,-2.614 7.332,-7.841 V 2.231 c 0,-5.185 -2.466,-7.777 -7.395,-7.777 z"
             style="fill:#ffffff;fill-opacity:1;fill-rule:nonzero;stroke:none"
             id="path5352"
             inkscape:connector-curvature="0" /></g><g
           id="g5354"
           transform="translate(374.8916,73.9629)"
           style="fill:#ffffff"><path
             d="m 0,0 h 4.016 c 1.827,0 2.741,1.104 2.741,3.315 v 9.88 c 0,2.21 -0.914,3.315 -2.741,3.315 H 0 Z M -6.12,22.056 H 5.864 c 4.675,0 7.012,-2.614 7.012,-7.841 V 2.933 c 0,-3.995 -1.21,-6.525 -3.633,-7.586 l 4.271,-19.06 H 7.713 L 3.697,-5.227 H 0 v -18.486 h -6.12 z"
             style="fill:#ffffff;fill-opacity:1;fill-rule:nonzero;stroke:none"
             id="path5356"
             inkscape:connector-curvature="0" /></g><g
           id="g5358"
           transform="translate(413.0757,50.2495)"
           style="fill:#ffffff"><path
             d="m 0,0 h -6.12 l -7.65,22.375 v 0.382 l 6.375,23.013 h 5.61 L -8.224,23.012 Z m -14.088,0 h -6.12 v 45.77 h 6.12 z"
             style="fill:#ffffff;fill-opacity:1;fill-rule:nonzero;stroke:none"
             id="path5360"
             inkscape:connector-curvature="0" /></g></g></g></g></svg>